HIERARCHY
ROOT hip
{
  OFFSET 0 0 0
  CHANNELS 6 Xposition Yposition Zposition Zrotation Yrotation Xrotation
  JOINT abdomen
  {
    OFFSET 0 20.6881 -0.73152
    CHANNELS 3 Zrotation Xrotation Yrotation
    JOINT chest
    {
      OFFSET 0 11.7043 -0.48768
      CHANNELS 3 Zrotation Xrotation Yrotation
      JOINT neck
      {
        OFFSET 0 22.1894 -2.19456
        CHANNELS 3 Zrotation Xrotation Yrotation
        JOINT head
        {
          OFFSET -0.24384 7.07133 1.2192
          CHANNELS 3 Zrotation Xrotation Yrotation
          JOINT leftEye
          {
            OFFSET 4.14528 8.04674 8.04672
            CHANNELS 3 Zrotation Xrotation Yrotation
            End Site
            {
              OFFSET 1 0 0
            }
          }
          JOINT rightEye
          {
            OFFSET -3.6576 8.04674 8.04672
            CHANNELS 3 Zrotation Xrotation Yrotation
            End Site
            {
              OFFSET 1 0 0
            }
          }
        }
      }
      JOINT rCollar
      {
        OFFSET -2.68224 19.2634 -4.8768
        CHANNELS 3 Zrotation Xrotation Yrotation
        JOINT rShldr
        {
          OFFSET -8.77824 -1.95073 1.46304
          CHANNELS 3 Zrotation Xrotation Yrotation
          JOINT rForeArm
          {
            OFFSET -28.1742 -1.7115 0.48768
            CHANNELS 3 Zrotation Xrotation Yrotation
            JOINT rHand
            {
              OFFSET -22.5879 0.773209 7.07136
              CHANNELS 3 Zrotation Xrotation Yrotation
              JOINT rThumb1
              {
                OFFSET -1.2192 -0.487915 3.41376
                CHANNELS 3 Zrotation Xrotation Yrotation
                JOINT rThumb2
                {
                  OFFSET -3.37035 -0.52449 3.41376
                  CHANNELS 3 Zrotation Xrotation Yrotation
                  End Site
                  {
                    OFFSET -1.78271 -1.18214 1.43049
                  }
                }
              }
              JOINT rIndex1
              {
                OFFSET -7.75947 0.938293 5.60832
                CHANNELS 3 Zrotation Xrotation Yrotation
                JOINT rIndex2
                {
                  OFFSET -2.54057 -0.884171 1.56538
                  CHANNELS 3 Zrotation Xrotation Yrotation
                  End Site
                  {
                    OFFSET -1.62519 -0.234802 1.16502
                  }
                }
              }
              JOINT rMid1
              {
                OFFSET -8.24714 1.18213 3.41376
                CHANNELS 3 Zrotation Xrotation Yrotation
                JOINT rMid2
                {
                  OFFSET -3.10165 -0.590103 1.0647
                  CHANNELS 3 Zrotation Xrotation Yrotation
                  End Site
                  {
                    OFFSET -2.48547 -0.328903 0.83742
                  }
                }
              }
              JOINT rRing1
              {
                OFFSET -8.82822 0.546677 1.51678
                CHANNELS 3 Zrotation Xrotation Yrotation
                JOINT rRing2
                {
                  OFFSET -2.60934 -0.819778 -0.0198488
                  CHANNELS 3 Zrotation Xrotation Yrotation
                  End Site
                  {
                    OFFSET -2.33842 -0.294052 0.168128
                  }
                }
              }
              JOINT rPinky1
              {
                OFFSET -8.27202 -0.0477905 -0.4584
                CHANNELS 3 Zrotation Xrotation Yrotation
                JOINT rPinky2
                {
                  OFFSET -1.82734 -0.647385 -0.700984
                  CHANNELS 3 Zrotation Xrotation Yrotation
                  End Site
                  {
                    OFFSET -1.69225 -0.51767 -0.607171
                  }
                }
              }
            }
          }
        }
      }
      JOINT lCollar
      {
        OFFSET 2.68224 19.2634 -4.8768
        CHANNELS 3 Zrotation Xrotation Yrotation
        JOINT lShldr
        {
          OFFSET 8.77824 -1.95073 1.46304
          CHANNELS 3 Zrotation Xrotation Yrotation
          JOINT lForeArm
          {
            OFFSET 28.1742 -1.7115 0.48768
            CHANNELS 3 Zrotation Xrotation Yrotation
            JOINT lHand
            {
              OFFSET 22.5879 0.773209 7.07136
              CHANNELS 3 Zrotation Xrotation Yrotation
              JOINT lThumb1
              {
                OFFSET 1.2192 -0.487915 3.41376
                CHANNELS 3 Zrotation Xrotation Yrotation
                JOINT lThumb2
                {
                  OFFSET 3.37035 -0.52449 3.41376
                  CHANNELS 3 Zrotation Xrotation Yrotation
                  End Site
                  {
                    OFFSET 1.78271 -1.18214 1.43049
                  }
                }
              }
              JOINT lIndex1
              {
                OFFSET 7.75947 0.938293 5.60832
                CHANNELS 3 Zrotation Xrotation Yrotation
                JOINT lIndex2
                {
                  OFFSET 2.54057 -0.884171 1.56538
                  CHANNELS 3 Zrotation Xrotation Yrotation
                  End Site
                  {
                    OFFSET 1.62519 -0.234802 1.16502
                  }
                }
              }
              JOINT lMid1
              {
                OFFSET 8.24714 1.18213 3.41376
                CHANNELS 3 Zrotation Xrotation Yrotation
                JOINT lMid2
                {
                  OFFSET 3.10165 -0.590103 1.0647
                  CHANNELS 3 Zrotation Xrotation Yrotation
                  End Site
                  {
                    OFFSET 2.48547 -0.328903 0.83742
                  }
                }
              }
              JOINT lRing1
              {
                OFFSET 8.82822 0.546677 1.51678
                CHANNELS 3 Zrotation Xrotation Yrotation
                JOINT lRing2
                {
                  OFFSET 2.60934 -0.819778 -0.0198488
                  CHANNELS 3 Zrotation Xrotation Yrotation
                  End Site
                  {
                    OFFSET 2.33842 -0.294052 0.168128
                  }
                }
              }
              JOINT lPinky1
              {
                OFFSET 8.27202 -0.0477905 -0.4584
                CHANNELS 3 Zrotation Xrotation Yrotation
                JOINT lPinky2
                {
                  OFFSET 1.82734 -0.647385 -0.700984
                  CHANNELS 3 Zrotation Xrotation Yrotation
                  End Site
                  {
                    OFFSET 1.69225 -0.51767 -0.607171
                  }
                }
              }
            }
          }
        }
      }
    }
  }
  JOINT rButtock
  {
    OFFSET -8.77824 4.35084 1.2192
    CHANNELS 3 Zrotation Xrotation Yrotation
    JOINT rThigh
    {
      OFFSET 0 -1.70687 -2.19456
      CHANNELS 3 Zrotation Xrotation Yrotation
      JOINT rShin
      {
        OFFSET 0 -36.8199 0.73152
        CHANNELS 3 Zrotation Xrotation Yrotation
        JOINT rFoot
        {
          OFFSET 0.73152 -45.1104 -5.12064
          CHANNELS 3 Zrotation Xrotation Yrotation
          End Site
          {
            OFFSET -1.1221 -3.69964 12.103
          }
        }
      }
    }
  }
  JOINT lButtock
  {
    OFFSET 8.77824 4.35084 1.2192
    CHANNELS 3 Zrotation Xrotation Yrotation
    JOINT lThigh
    {
      OFFSET 0 -1.70687 -2.19456
      CHANNELS 3 Zrotation Xrotation Yrotation
      JOINT lShin
      {
        OFFSET 0 -36.8199 0.73152
        CHANNELS 3 Zrotation Xrotation Yrotation
        JOINT lFoot
        {
          OFFSET -0.73152 -45.1104 -5.12064
          CHANNELS 3 Zrotation Xrotation Yrotation
          End Site
          {
            OFFSET 1.1221 -3.69964 12.103
          }
        }
      }
    }
  }
}
MOTION
Frames:	4
Frame Time:	0.00833333
-1.65581 83.1861 51.4704 -12.7741 -36.662 20.2439 1.69446 -10.1818 -1.22022 -3.71458 -11.4168 -1.21678 -5.34275 11.0379 -7.81339 15.1675 -15.3351 -13.1248 -0.0 0.0 0.0 -0.0 0.0 0.0 1.76122e-14 4.22222e-13 -1.47724e-12 45.979 57.8259 52.1757 -17.7475 -54.9009 119.438 -0.170253 11.7023 1.668 -1.68267e-10 -2.9087e-09 -6.27128e-09 -3.01284e-10 -5.03902e-09 -1.0856e-08 -1.68263e-10 -2.9087e-09 -6.27128e-09 7.73091 5.47488 0.417314 -1.68266e-10 -2.90869e-09 -6.27128e-09 2.90554 0.965183 0.102902 -1.68261e-10 -2.9087e-09 -6.27128e-09 10.2786 0.731801 0.0259123 -1.68269e-10 -2.90869e-09 -6.27127e-09 2.22167 -0.733487 -0.20892 1.75956e-14 4.22217e-13 -1.47752e-12 -71.0372 58.245 -17.8267 17.3567 -55.1375 -120.302 0.165975 -11.5332 1.64337 3.56166e-11 -1.00121e-09 -3.58442e-09 1.07506e-10 -1.75251e-09 -6.21416e-09 3.56117e-11 -1.00121e-09 -3.58443e-09 -7.73091 5.47488 -0.417314 3.56167e-11 -1.00121e-09 -3.58443e-09 -2.90554 0.965183 -0.102902 3.56135e-11 -1.00121e-09 -3.58443e-09 -10.2786 0.731801 -0.0259123 3.5621e-11 -1.00121e-09 -3.58444e-09 -2.22167 -0.733487 0.20892 -2.03217e-16 0.0 -3.88251e-19 2.18028 -15.0317 26.0167 0.129948 0.204287 1.18266 -0.95561 -2.12389 -2.02028 2.03217e-16 0.0 3.88251e-19 -9.29058 -9.39835 -37.1028 0.664163 23.0102 4.83986 87.0004 -41.786 96.5581
-1.53253 83.1937 51.4735 -11.8063 -35.551 19.7101 1.81968 -10.0896 -0.887964 -3.90678 -11.4687 -1.13873 -4.98769 10.96 -7.59596 14.5484 -15.1076 -12.812 -0.0 0.0 0.0 -0.0 0.0 0.0 -3.61337e-14 3.20602e-13 -1.72839e-12 45.7908 57.7837 52.2654 -17.6966 -54.9321 119.551 -0.184594 12.1633 1.73577 -3.26564e-10 -3.28294e-09 -7.73676e-09 -5.80119e-10 -5.6878e-09 -1.33921e-08 -3.26559e-10 -3.28293e-09 -7.73676e-09 7.73091 5.47488 0.417314 -3.26566e-10 -3.28293e-09 -7.73676e-09 2.90554 0.965183 0.102902 -3.26557e-10 -3.28293e-09 -7.73676e-09 10.2786 0.731801 0.0259123 -3.26564e-10 -3.28293e-09 -7.73675e-09 2.22167 -0.733487 -0.20892 -3.61568e-14 3.20591e-13 -1.72865e-12 -71.1948 58.3055 -17.5297 17.3345 -55.1509 -120.351 0.16346 -11.4469 1.63073 -3.62459e-10 -1.29194e-09 -4.54493e-09 -5.67013e-10 -2.2664e-09 -7.88349e-09 -3.62465e-10 -1.29194e-09 -4.54494e-09 -7.73091 5.47488 -0.417314 -3.6246e-10 -1.29194e-09 -4.54494e-09 -2.90554 0.965183 -0.102902 -3.62464e-10 -1.29194e-09 -4.54494e-09 -10.2786 0.731801 -0.0259123 -3.62453e-10 -1.29193e-09 -4.54495e-09 -2.22167 -0.733487 0.20892 -2.03217e-16 0.0 -3.88251e-19 2.03623 -14.868 25.7916 0.127262 0.164752 1.15438 -1.10994 -2.22104 -3.12787 2.03217e-16 0.0 3.88251e-19 -9.31936 -9.43416 -38.0273 0.659539 22.9932 4.78171 86.3644 -41.519 96.0999
-1.59903 83.1303 51.3717 -12.1458 -32.916 19.3758 2.13804 -9.95395 -0.434155 -4.05961 -11.5 -1.01748 -4.46317 10.7343 -7.15046 13.7299 -14.8423 -12.0919 -0.0 0.0 0.0 -0.0 0.0 0.0 -8.06916e-14 2.2861e-13 -1.76824e-12 45.5429 57.7755 52.3767 -17.6977 -54.9317 119.549 -0.1917 12.3786 1.76756 -5.15931e-10 -3.27952e-09 -8.23399e-09 -9.10242e-10 -5.68207e-09 -1.42514e-08 -5.15924e-10 -3.27952e-09 -8.23399e-09 7.73091 5.47488 0.417314 -5.15934e-10 -3.27952e-09 -8.23399e-09 2.90554 0.965183 0.102902 -5.15922e-10 -3.27952e-09 -8.23399e-09 10.2786 0.731801 0.0259123 -5.1593e-10 -3.27952e-09 -8.23398e-09 2.22167 -0.733487 -0.20892 -8.07268e-14 2.28596e-13 -1.76849e-12 -71.2675 58.2906 -17.3585 17.3157 -55.1622 -120.392 0.162737 -11.4222 1.62712 -6.78697e-10 -1.36452e-09 -4.83031e-09 -1.10948e-09 -2.39689e-09 -8.38144e-09 -6.78702e-10 -1.36452e-09 -4.83031e-09 -7.73091 5.47488 -0.417314 -6.78697e-10 -1.36452e-09 -4.83031e-09 -2.90554 0.965183 -0.102902 -6.78702e-10 -1.36452e-09 -4.83031e-09 -10.2786 0.731801 -0.0259123 -6.7869e-10 -1.36452e-09 -4.83032e-09 -2.22167 -0.733487 0.20892 -2.03217e-16 0.0 -3.88251e-19 2.00402 -14.5058 25.589 0.121457 0.0971755 1.09393 -1.35702 -2.34961 -4.92513 2.03217e-16 0.0 3.88251e-19 -8.88684 -9.49503 -38.7936 0.648155 22.5841 4.52212 83.0023 -40.9797 93.6928
-1.43195 83.0753 51.3731 -10.3578 -30.3348 18.4145 2.73607 -9.74322 0.145985 -4.14406 -11.4866 -0.847444 -3.71538 10.2517 -6.42675 12.6162 -14.5155 -10.8773 -0.0 0.0 0.0 -0.0 0.0 0.0 -1.15292e-13 1.44145e-13 -1.47228e-12 45.1241 57.8394 52.6082 -17.7727 -54.886 119.382 -0.186751 12.2264 1.74511 -7.82841e-10 -2.66533e-09 -7.25257e-09 -1.37084e-09 -4.61772e-09 -1.25497e-08 -7.82835e-10 -2.66533e-09 -7.25257e-09 7.73091 5.47488 0.417314 -7.82844e-10 -2.66533e-09 -7.25257e-09 2.90554 0.965183 0.102902 -7.82833e-10 -2.66533e-09 -7.25257e-09 10.2786 0.731801 0.0259123 -7.82841e-10 -2.66533e-09 -7.25256e-09 2.22167 -0.733487 -0.20892 -1.15355e-13 1.4413e-13 -1.47254e-12 -71.2281 58.1448 -17.38 17.2946 -55.1748 -120.438 0.165679 -11.5239 1.64199 -8.79723e-10 -1.10961e-09 -4.05342e-09 -1.46769e-09 -1.95177e-09 -7.03654e-09 -8.79727e-10 -1.10961e-09 -4.05342e-09 -7.73091 5.47488 -0.417314 -8.79723e-10 -1.10961e-09 -4.05343e-09 -2.90554 0.965183 -0.102902 -8.79727e-10 -1.10961e-09 -4.05343e-09 -10.2786 0.731801 -0.0259123 -8.79717e-10 -1.1096e-09 -4.05344e-09 -2.22167 -0.733487 0.20892 -2.03217e-16 0.0 -3.88251e-19 2.14369 -13.8854 25.4403 0.110183 -0.0117509 0.980743 -1.70365 -2.38648 -7.59075 2.03217e-16 0.0 3.88251e-19 -7.77421 -9.52779 -39.4276 0.601015 21.62 3.96765 76.4124 -39.3074 89.1862
